<svg
   fill="#000000" width="24px" height="24px" viewBox="0 0 1024 1024" version="1.1" xmlns="http://www.w3.org/2000/svg">
  <path
     style="fill:#000000;stroke-width:0.828528"
     d="m 382.59582,955.06825 c -110.50399,-2.8416 -156.5179,-11.4644 -205.37052,-38.48501 -28.66203,-15.85308 -82.694321,-64.08478 -78.818059,-70.35665 0.245121,-0.39672 0,-0.99099 -0.524299,-1.32078 -0.655279,-0.40497 -0.754633,-0.22194 -0.306304,0.56421 1.836304,3.21877 -1.533106,-1.27394 -5.962016,-7.95019 C 67.871509,801.73052 52.805999,755.62169 47.488975,702.47026 43.687663,664.46711 42.900572,625.95975 42.900572,477.94003 c 0,-174.14021 1.191918,-210.28022 8.343139,-252.98654 C 71.76728,102.3901 156.76124,22.358267 283.17292,6.5650771 345.9154,-1.27368 660.23313,-2.4173529 741.34707,4.8977119 888.97674,18.211814 978.18806,105.94312 993.20867,252.58124 c 6.71026,65.50757 6.7127,385.11745 0,450.71762 -14.60997,142.84991 -101.24711,231.23999 -241.92246,246.81719 -39.10325,4.3301 -60.62571,4.8273 -217.07354,5.0153 -78.37853,0.095 -146.60759,0.066 -151.62013,-0.063 z m 286.25537,-86.48443 c 104.83318,-3.23065 143.68115,-13.39064 181.16556,-47.38048 45.09449,-40.89052 57.30567,-79.82258 60.75947,-193.71454 1.06453,-35.10466 1.063,-269.96057 0,-301.58312 C 907.07036,215.86665 895.20007,177.4055 852.62559,137.49185 803.34494,91.292977 773.91965,86.844687 518.0597,86.914737 c -256.02191,0.07 -284.09087,4.67 -334.18736,54.766583 -48.09039,48.09035 -53.91565,80.01452 -54.93331,301.04643 -1.312,284.96428 4.04876,321.11423 55.16633,372.02823 40.75829,40.5959 80.55849,51.37877 199.73328,54.11298 27.26629,0.62557 263.11734,0.38963 285.01255,-0.28514 z M 499.41781,722.71269 C 291.79814,703.27411 200.02489,451.69472 346.95519,304.76438 494.88708,156.83257 747.86266,250.58514 765.05685,459.71247 777.28659,608.45919 647.8502,736.60982 499.41781,722.71269 Z m 44.91005,-87.41004 C 649.72202,619.81419 710.4049,503.81984 663.13305,408.20843 604.5606,289.74032 435.54808,289.82055 377.61942,408.34392 321.4351,523.29816 417.40669,653.95471 544.32786,635.30267 Z M 760.99601,278.71231 c -51.01211,-13.77048 -57.92499,-83.19909 -10.65957,-107.05853 36.18619,-18.26674 80.35092,7.81351 82.32541,48.61502 1.85765,38.3858 -34.90615,68.36671 -71.66584,58.44351 z" />
</svg>