<?xml version="1.0" encoding="UTF-8" standalone="no"?>
<svg
   fill="#000000"
   width="24px"
   height="24px"
   viewBox="0 0 1024 1024"
   version="1.1"
   id="svg184"
   sodipodi:docname="portfolio.svg"
   inkscape:version="1.2.2 (b0a84865, 2022-12-01)"
   xmlns:inkscape="http://www.inkscape.org/namespaces/inkscape"
   xmlns:sodipodi="http://sodipodi.sourceforge.net/DTD/sodipodi-0.dtd"
   xmlns="http://www.w3.org/2000/svg"
   xmlns:svg="http://www.w3.org/2000/svg">
  <sodipodi:namedview
     id="namedview421"
     pagecolor="#ffffff"
     bordercolor="#000000"
     borderopacity="0.25"
     inkscape:showpageshadow="2"
     inkscape:pageopacity="0.0"
     inkscape:pagecheckerboard="0"
     inkscape:deskcolor="#d1d1d1"
     showgrid="false"
     inkscape:zoom="9.1720646"
     inkscape:cx="-0.76318695"
     inkscape:cy="11.447804"
     inkscape:window-width="1309"
     inkscape:window-height="456"
     inkscape:window-x="152"
     inkscape:window-y="322"
     inkscape:window-maximized="0"
     inkscape:current-layer="svg184" />
  <defs
     id="defs188" />
  <path
     d="m 912.4574,199.96781 c -13.64383,22.4462 -19.36539,48.85353 -17.60489,74.82065 v 44.45226 h 89.34465 c 9.68269,-0.44013 17.60484,6.60181 18.48514,16.28449 v 2.20064 87.58414 c 0,4.84131 -1.3204,9.6827 -4.40127,13.20363 -3.08088,3.52101 -7.48206,5.72155 -12.32337,6.16168 h -0.88025 -90.2249 v 452.00465 c 0.88025,10.1228 -7.04194,18.9253 -16.72463,19.3654 H 875.4872 750.05261 c -10.12282,0.8802 -18.92526,-7.0419 -19.36539,-16.7246 v -2.6408 -452.00465 h -58.53613 c -5.28143,0 -10.12282,-2.20055 -13.20363,-6.60181 -2.64075,-3.96105 -3.96113,-8.36232 -3.96113,-13.20362 v -87.58414 c 0,-4.40127 1.32038,-9.24257 4.40126,-12.7635 3.0808,-3.52101 7.92219,-5.72164 12.7635,-5.72164 h 58.53613 v -32.56893 c -1.7605,-47.53315 7.92219,-95.06621 28.16775,-138.19817 15.84438,-33.44918 40.93134,-62.057064 72.6201,-81.422454 33.44919,-18.92518 71.29963,-28.16775 109.59021,-27.2875 25.08686,-1.32038 50.17381,2.64076 73.50022,11.44312 4.4012,1.32038 7.9222,4.40126 10.1228,8.36231 2.2006,3.96114 3.5209,8.36232 3.0808,12.76358 v 95.946464 c 0.4401,5.28143 -1.7605,11.00299 -5.7215,14.524 -4.8413,3.52093 -11.4432,4.40118 -16.7246,1.76051 -13.64378,-5.28152 -27.72766,-7.92219 -42.25166,-7.48215 -19.80543,-0.88017 -38.7307,7.48215 -50.61394,23.32644 z M 462.65329,578.03208 v 0 c -62.05706,44.89238 -140.39871,66.89845 -234.58466,66.89845 h -39.61095 l -11.88325,-0.44013 v 253.50995 c 0,5.2814 -1.7605,10.1228 -5.72156,13.6437 -3.96113,3.0809 -8.80244,4.8414 -13.64375,4.4013 H 31.774533 c -9.6827,0.4401 -17.60489,-6.6018 -18.48514,-16.2845 v -2.2006 -765.37106 c 0,-4.40126 1.32038,-9.24257 4.40118,-12.76358 3.08088,-3.52092 7.92219,-5.72155 12.76358,-5.72155 50.61394,-1.76051 121.913587,-2.20064 213.458857,-2.20064 105.62915,0 185.2911,24.2067 236.78531,75.26077 51.05406,47.97327 79.66194,115.75198 77.4613,186.17135 -0.44004,89.78477 -31.68867,158.44373 -95.50633,205.09654 z M 355.26372,276.54896 v 0 c -25.52708,-23.76657 -62.05714,-36.53007 -111.79084,-36.53007 -32.56901,0 -54.57508,0.44013 -66.89845,1.32038 v 273.31537 c 12.32337,0.88025 31.68877,1.32038 58.53614,1.32038 40.93133,1.76042 81.86258,-9.6827 116.19201,-32.56902 28.16784,-21.12581 43.13197,-56.3355 43.13197,-107.8297 2.20055,-36.97019 -11.88333,-73.50026 -39.17083,-99.02734 z"
     style="clip-rule:evenodd;fill:#ffffff;fill-rule:evenodd;stroke-width:4.40121"
     id="path671" />
</svg>
